<svg xmlns="http://www.w3.org/2000/svg" version="1.1" xmlns:xlink="http://www.w3.org/1999/xlink" xmlns:svgjs="http://svgjs.dev/svgjs" width="2000" height="929" viewBox="0 0 2000 929"><g transform="matrix(1,0,0,1,-1.2112696095522324,-0.5486460971609972)"><svg viewBox="0 0 396 184" data-background-color="#ffffff" preserveAspectRatio="xMidYMid meet" height="929" width="2000" xmlns="http://www.w3.org/2000/svg" xmlns:xlink="http://www.w3.org/1999/xlink"><g id="tight-bounds" transform="matrix(1,0,0,1,0.24008861730862918,0.10885982831555907)"><svg viewBox="0 0 395.52 183.78235846352055" height="183.78235846352055" width="395.52"><g><svg viewBox="0 0 395.52 183.78235846352055" height="183.78235846352055" width="395.52"><g><svg viewBox="0 0 395.52 183.78235846352055" height="183.78235846352055" width="395.52"><g><svg viewBox="0 0 395.52 183.78235846352055" height="183.78235846352055" width="395.52"><g id="textblocktransform"><svg viewBox="0 0 395.52 183.78235846352055" height="183.78235846352055" width="395.52" id="textblock"><g><svg viewBox="0 0 395.52 183.78235846352055" height="183.78235846352055" width="395.52"><path d="M394.594 39.418C392.735 20.341 387.435 15.038 387.435 15.038 371.165-4.611 350.86-0.376 332.619 2.447 300.414 2.562 268.339 6.759 236.208 9.01 168.767 9.353 100.749 3.707 33.643 17.632 27.339 21.906-6.54 18.472 1.121 41.86 3.129 51.589 10.456 62.386 10.232 71.314 11.236 72.878 12.631 69.292 13.226 71.543 15.309 77.609 18.711 74.748 21.501 78.334 17.614 87.91 20.403 95.884 23.062 104.24 18.377 106.415 12.371 105.384 9.675 112.595 9.396 117.822 7.89 116.83 6.235 116.601 5.026 116.449 2.59 117.021 2.999 118.662 4.394 124.27-1.594 127.513 2.162 133.007-0.422 138.959 3.948 144.11 3.353 150.558 3.278 151.855 3.687 152.961 4.338 153.267 7.22 154.907 3.018 158.112 3.464 161.584 33.029 185.315 65.104 168.909 95.394 179.821 103.259 172.191 97.346 182.53 100.489 180.928 102.943 179.058 104.728 186.803 107.499 182.416 107.927 181.157 107.276 178.181 108.8 178.753 109.6 179.058 110.307 178.982 110.418 177.227 110.586 174.594 109.117 176.235 108.726 174.861 112.947 167.917 111.906 184.438 115.866 183.751 115.68 181.729 114.528 178.829 116.889 179.211 119.232 176.311 119.306 173.907 121.389 180.432 121.463 181.843 121.835 182.835 122.43 183.522 128.938 176.426 135.409 186.04 142.233 182.835 146.417 179.325 150.433 184.743 154.672 183.408 156.16 182.339 157.666 180.432 159.098 183.636 176.632 184.323 195.319 181.462 211.943 183.751 256.364 179.478 303.835 185.506 350.674 179.859 361.719 177.685 373.192 174.594 383.958 172.114 383.958 172.114 392.679 165.323 392.679 134.801S394.538 108.093 394.817 83.79C395.096 59.486 396.398 58.494 394.538 39.418Z" opacity="1" fill="#6c2f35" data-fill-palette-color="tertiary"></path><g transform="matrix(1,0,0,1,55.76832,26.230666666666668)"><svg width="283.98335999999995" viewBox="-0.21555551886558533 -30.959999084472656 96.00555419921875 44.39999771118164" height="131.32102513018722" data-palette-color="#fee3ce"><path d="M1.96 1.64L1.96 1.64Q1.96 4.6 5.08 5.2L5.08 5.2Q5.68 5.32 6.44 5.32L6.44 5.32Q11.44 5.32 14.36 2.1 17.28-1.12 17.28-6L17.28-6Q17.28-7.92 16.58-9.54 15.88-11.16 14.84-12.22 13.8-13.28 12.58-14.36 11.36-15.44 10.32-16.32 9.28-17.2 8.58-18.44 7.88-19.68 7.88-21.08L7.88-21.08Q7.88-24.76 11.18-27.86 14.48-30.96 18.28-30.96L18.28-30.96Q19.04-30.96 19.4-30.4 19.76-29.84 19.76-29.28L19.76-29.28 19.72-28.76Q19.44-28.92 18.32-28.92L18.32-28.92Q15.76-28.92 13.36-26.52 10.96-24.12 10.96-20.96L10.96-20.96Q10.96-19.68 11.66-18.46 12.36-17.24 13.4-16.32 14.44-15.4 15.64-14.26 16.84-13.12 17.88-12.02 18.92-10.92 19.62-9.34 20.32-7.76 20.32-6L20.32-6Q20.32-1.16 16.32 2.6 12.32 6.36 6.44 6.36L6.44 6.36Q1.48 6.36 0.16 3.16L0.16 3.16Q-0.88 0.52 0.96-2.68 2.8-5.88 6.28-7L6.28-7Q7.56-7.4 8.56-7.4 9.56-7.4 9.94-7.06 10.32-6.72 10.44-6L10.44-6Q6.68-6 4-2.96L4-2.96Q1.96-0.68 1.96 1.64ZM20.52-20.48L20.52-20.48Q20.52-20.28 20.14-20.28 19.76-20.28 19.44-20.44 19.12-20.6 19.12-20.88L19.12-20.88Q19.12-24.96 20.04-27.44 20.96-29.92 22.48-29.92L22.48-29.92Q22.88-29.92 23.16-29.64 23.44-29.36 23.44-28.92L23.44-28.92Q21.64-27.12 20.84-23.52L20.84-23.52Q20.52-22.08 20.52-20.48ZM38.12 3L38.12 3Q38.6 3 39.02 2.58 39.44 2.16 39.8 1.28L39.8 1.28Q39.84 0.92 40.28 0.92 40.72 0.92 40.62 1.28 40.52 1.64 40.3 2.16 40.08 2.68 39.38 3.54 38.68 4.4 37.96 4.4L37.96 4.4Q36.36 4.4 35.48 2.4L35.48 2.4Q34.56 0.4 34.56-2.54 34.56-5.48 35-8.6L35-8.6 34.64-8.6Q29.8-0.16 27.2-0.16L27.2-0.16Q24.12-0.16 24.12-4.86 24.12-9.56 26.12-14.24L26.12-14.24Q28.32-19.4 30-19.4L30-19.4Q30.72-19.4 30.72-18.52L30.72-18.52Q29.04-14.08 27.84-9.88 26.64-5.68 26.64-3.62 26.64-1.56 27.6-1.56L27.6-1.56Q28.28-1.56 29.62-3.2 30.96-4.84 32.36-7.2L32.36-7.2Q35.36-12.28 36.94-15.84 38.52-19.4 40.2-19.4L40.2-19.4Q41-19.4 41-18.52L41-18.52Q38.44-13.44 37.36-6.4L37.36-6.4Q36.92-3.6 36.92-0.92L36.92-0.92Q36.92 3 38.12 3ZM45.84-6.48L46.2-6.48Q51.36-19.24 56.23-19.24L56.23-19.24Q58.28-19.24 58.28-17.28L58.28-17.28Q58-16.36 57.55-14.86 57.12-13.36 56.38-9.48 55.64-5.6 55.64-2.68L55.64-2.68Q55.64 1.56 56.88 1.56L56.88 1.56Q57.36 1.56 57.8 1.18 58.23 0.8 58.4 0.8L58.4 0.8Q58.95 0.8 58.4 1.68L58.4 1.68Q58.2 1.96 57.66 2.44 57.12 2.92 56.55 2.92L56.55 2.92Q55.04 2.92 54.18 0.74 53.32-1.44 53.32-4.92L53.32-4.92Q53.32-10.44 55.04-17.04L55.04-17.04Q55.2-17.56 54.72-17.56L54.72-17.56Q54.4-17.56 54-17.24L54-17.24Q52.08-15.56 49.95-11.68 47.84-7.8 46.64-4.74 45.44-1.68 45.44-1.18 45.44-0.68 44.88-0.68L44.88-0.68Q43.59-0.68 43.59-3.84L43.59-3.84Q43.59-9.8 44.82-14.64 46.04-19.48 47.76-19.48L47.76-19.48Q48.48-19.48 48.48-18.6L48.48-18.6Q46.64-12.64 45.84-6.48L45.84-6.48ZM63.75-6.48L64.11-6.48Q69.27-19.24 74.15-19.24L74.15-19.24Q76.19-19.24 76.19-17.28L76.19-17.28Q75.91-16.36 75.47-14.86 75.03-13.36 74.29-9.48 73.55-5.6 73.55-2.68L73.55-2.68Q73.55 1.56 74.79 1.56L74.79 1.56Q75.27 1.56 75.71 1.18 76.15 0.8 76.31 0.8L76.31 0.8Q76.87 0.8 76.31 1.68L76.31 1.68Q76.11 1.96 75.57 2.44 75.03 2.92 74.47 2.92L74.47 2.92Q72.95 2.92 72.09 0.74 71.23-1.44 71.23-4.92L71.23-4.92Q71.23-10.44 72.95-17.04L72.95-17.04Q73.11-17.56 72.63-17.56L72.63-17.56Q72.31-17.56 71.91-17.24L71.91-17.24Q69.99-15.56 67.87-11.68 65.75-7.8 64.55-4.74 63.35-1.68 63.35-1.18 63.35-0.68 62.79-0.68L62.79-0.68Q61.51-0.68 61.51-3.84L61.51-3.84Q61.51-9.8 62.73-14.64 63.95-19.48 65.67-19.48L65.67-19.48Q66.39-19.48 66.39-18.6L66.39-18.6Q64.55-12.64 63.75-6.48L63.75-6.48ZM80.03 12.52L80.03 12.52Q83.63 12.52 85.67 9.12L85.67 9.12Q87.43 6.12 88.39 1.64L88.39 1.64Q81.15 1.8 77.27 7.16L77.27 7.16Q77.03 7.52 76.51 7.28L76.51 7.28Q76.23 7.12 76.35 6.88L76.35 6.88Q78.07 4.28 81.15 2.46 84.23 0.64 88.63 0.48L88.63 0.48Q89.07-1.52 89.47-4.2 89.87-6.88 90.39-9.4L90.39-9.4 90.03-9.4Q84.83-0.16 82.11-0.16L82.11-0.16Q79.07-0.16 79.07-4.84 79.07-9.52 81.07-14.26 83.07-19 84.71-19.36L84.71-19.36 84.95-19.4Q85.63-19.4 85.63-18.52L85.63-18.52Q85.19-17.44 84.51-15.7 83.83-13.96 82.71-9.98 81.59-6 81.59-3.78 81.59-1.56 82.55-1.56L82.55-1.56Q83.67-1.56 86.15-5.44L86.15-5.44Q89.79-11.12 92.47-16.96L92.47-16.96Q93.63-19.4 94.95-19.4L94.95-19.4Q95.79-19.4 95.79-18.48L95.79-18.48Q95.03-17.08 93.95-13.24 92.87-9.4 92.19-5.5 91.51-1.6 91.03 0.6L91.03 0.6Q94.07 1.12 94.55 3.24L94.55 3.24Q94.63 3.6 94.63 4.22 94.63 4.84 94.15 5.3 93.67 5.76 93.31 5.76L93.31 5.76Q93.39 5.48 93.35 4.78 93.31 4.08 93.09 3.6 92.87 3.12 92.27 2.6 91.67 2.08 90.71 1.84L90.71 1.84Q87.63 13.44 80.03 13.44L80.03 13.44Q76.75 13.44 75.67 11.12L75.67 11.12Q75.63 11 75.63 10.92L75.63 10.92Q75.63 10.68 76.05 10.62 76.47 10.56 76.67 10.88L76.67 10.88Q77.39 12.52 80.03 12.52Z" opacity="1" transform="matrix(1,0,0,1,0,0)" fill="#fee3ce" class="wordmark-text-0" data-fill-palette-color="quaternary" id="text-0"></path></svg></g></svg></g></svg></g></svg></g><g></g></svg></g></svg></g><defs></defs></svg><rect width="395.52" height="183.78235846352055" fill="none" stroke="none" visibility="hidden"></rect></g></svg></g></svg>